<svg width="2640" height="1320" xmlns="http://www.w3.org/2000/svg" xmlns:xlink="http://www.w3.org/1999/xlink"
     xml:space="preserve" overflow="hidden"><defs><clipPath id="clip0"><rect x="1823" y="1277" width="2640" height="1320"/></clipPath></defs>
    <g clip-path="url(#clip0)" transform="translate(-1823 -1277)"><path d="M2735.3 1935.66C2721.58 1927.68 2708.11 1919.96 2694.98 1912.58 2667.1 1899.8 2641.53 1886.42 2614.93 1878.61 2563.29 1860.08 2515.07 1851.07 2473.8 1842.06 2432.19 1833.91 2396.84 1826.79 2367.16 1820.44 2338.5 1813.83 2315.51 1808 2297.58 1802.59 2308.91 1811 2321.35 1820.78 2335.85 1830.22 2344.68 1834.77 2354.03 1839.4 2363.99 1844.55 2374.2 1849.52 2384.75 1852.53 2395.73 1857.25 2407.14 1861.28 2420.27 1865.05 2433.05 1869.43 2439.83 1871.49 2446.69 1873.63 2453.64 1875.86 2457.16 1877.06 2460.76 1878.09 2464.19 1879.29L2466.94 1880.07 2467.71 1880.41C2467.71 1880.41 2468.31 1880.58 2468.4 1880.58L2468.57 1880.67 2473.97 1882.21C2488.65 1886.24 2503.49 1890.45 2519.02 1894.82 2534.37 1898.94 2550.5 1904.43 2566.46 1907.18 2598.81 1913.61 2631.92 1921.76 2668.38 1926.31 2690 1930.08 2712.48 1932.92 2735.3 1935.66ZM2867 2143.63C2801.28 2102.7 2731.53 2083.91 2666.84 2075.94 2595.2 2067.36 2528.97 2067.36 2471.74 2068.99 2414.09 2071.9 2363.81 2077.39 2320.32 2083.14 2246.1 2093.09 2191.45 2101.93 2152.93 2107.08 2152.59 2107.08 2152.5 2107.25 2151.99 2107.42 2144.78 2109.65 2136.97 2112.06 2128.57 2115.66 2127.54 2116.09 2126.33 2116.6 2125.05 2117.03 2161.51 2120.03 2203.46 2118.4 2249.11 2114.8 2283.94 2111.88 2323.15 2109.05 2362.61 2108.88 2401.56 2108.62 2442.14 2108.45 2483.67 2108.28 2523.22 2108.45 2561.74 2108.62 2599.06 2108.88 2617.59 2109.22 2635.95 2109.48 2653.71 2109.82 2671.9 2110.85 2689.83 2111.71 2707.34 2112.66 2766.62 2116.6 2821.53 2127.58 2867 2143.63ZM2919.59 2261.25C2935.55 2265.63 2951.94 2271.29 2967.72 2279.1 2766.62 2084.52 2392.81 2194.07 2132.6 2253.1 2133.03 2258.68 2131.4 2264.68 2126.42 2270 2102.48 2295.4 2075.54 2316.16 2046.55 2333.75 2232.81 2323.97 2416.75 2293.85 2603.18 2280.3 2715.14 2272.23 2837.57 2268.03 2949.7 2295.57 2937.95 2290.42 2925.68 2286.22 2913.67 2283.04 2877.98 2273.43 2842.2 2269.66 2807.89 2268.03 2773.57 2266.31 2740.71 2266.91 2709.31 2267.69 2677.82 2268.46 2647.88 2269.23 2619.57 2269.83 2506.4 2272.66 2418.12 2274.29 2350.6 2274.21 2283.08 2274.29 2236.5 2274.04 2206.81 2273.26 2177.13 2272.41 2164.34 2271.2 2164.34 2269.49 2164.34 2268.03 2177.13 2266.31 2206.81 2264.43 2236.5 2262.45 2283 2260.48 2350.26 2258.25 2417.69 2255.85 2505.89 2252.76 2619.14 2249.07 2647.36 2248.13 2677.22 2247.1 2708.79 2245.98 2740.11 2245.12 2773.65 2244.35 2808.92 2245.89 2844.18 2247.35 2881.33 2251.13 2919.59 2261.25ZM2969.69 2165.76C2984.71 2179.23 2998.95 2193.9 3012.76 2209.6 2997.41 2174.69 2977.85 2143.03 2955.71 2115.23 2941.81 2097.73 2927.06 2081.68 2912.04 2066.58 2861.77 2054.74 2810.89 2050.63 2759.67 2049.85 2760.01 2050.03 2760.18 2050.03 2760.27 2050.03 2770.39 2052.94 2780.43 2056.55 2790.9 2059.81 2832.25 2072.16 2872.75 2094.12 2912.64 2120.38 2931.77 2134.36 2950.56 2149.8 2969.69 2165.76ZM3048.45 2394.15C3045.54 2388.14 3042.71 2382.22 3039.7 2376.56 2896.68 2303.38 2716 2313.93 2561.31 2329.12 2357.04 2349.11 2154.56 2380.42 1948.83 2381.96 1933.9 2402.9 1920.17 2424.69 1907.56 2447 1959.64 2451.37 2014.12 2448.03 2065.76 2449.06 2195.66 2451.8 2325.55 2454.38 2455.36 2456.78 2640.76 2460.21 2826.42 2465.19 3011.82 2466.99 3012.76 2463.38 3013.79 2459.95 3014.99 2456.43 2866.14 2437.22 2740.71 2434.9 2638.1 2434.47 2532.83 2434.81 2450.81 2435.24 2388.18 2435.41 2325.55 2435.67 2282.22 2434.81 2254.68 2433.61 2227.14 2432.5 2215.13 2431.04 2215.13 2429.49 2215.13 2428.04 2227.14 2426.41 2254.68 2424.86 2282.22 2423.23 2325.29 2421.69 2387.84 2419.46 2450.47 2417.31 2532.57 2414.48 2638.1 2413.54 2742.43 2412.94 2870.17 2414.48 3023.23 2434.64 3023.75 2433.44 3024.52 2432.07 3025.12 2430.7 2909.04 2411.65 2810.29 2407.7 2728.53 2405.13 2640.93 2402.9 2572.04 2403.07 2519.79 2401.87 2414.95 2399.72 2375.05 2396.89 2375.05 2393.72 2375.05 2390.72 2414.95 2387.8 2519.79 2385.74 2572.12 2384.97 2640.67 2383.17 2728.96 2384.2 2803.08 2385.57 2891.71 2388.57 2994.66 2403.16 2969.78 2393.98 2944.13 2389.51 2920.19 2386 2881.5 2380.94 2844.86 2378.62 2812.86 2375.19 2748.52 2369.44 2698.41 2362.4 2660.06 2361.63 2583.1 2357.26 2553.76 2353.65 2553.76 2350.48 2553.76 2347.3 2583.1 2345.42 2660.66 2345.67 2699.53 2344.47 2749.89 2349.71 2814.84 2354.42 2847.35 2357.26 2882.7 2359.06 2923.02 2364.03 2943.18 2366.86 2964.29 2370.21 2986.08 2376.65 3004.96 2381.54 3023.92 2390.12 3042.36 2401.53 3044.34 2398.95 3046.31 2396.55 3048.45 2394.15ZM3078.4 2261.25C3081.23 2215.01 3080.54 2170.74 3076.08 2128.96 3052.49 2099.44 3017.57 2071.99 2975.7 2050.03 2964.38 2044.02 2952.71 2038.61 2940.61 2033.3 2957.68 2049.85 2974.33 2067.61 2990.29 2087.35 3019.03 2123.21 3044.94 2164.9 3063.13 2212.78 3069.22 2228.56 3074.28 2244.69 3078.4 2261.25ZM3168.57 2507.65C3156.98 2476.6 3145.32 2444.25 3121.89 2423.83 3086.03 2392.6 3063.47 2447.17 3052.92 2493.93 3088.61 2478.74 3129.44 2492.12 3168.57 2507.65ZM3717.82 2339.24C3755.14 2339.5 3792.38 2340.1 3829.53 2341.04 3791.09 2335.46 3752.57 2331.09 3713.62 2329.29 3613.67 2324.31 3507.97 2320.11 3409.22 2339.5 3364.09 2348.42 3322.83 2363.6 3282.76 2382.22 3426.81 2358.63 3570.6 2338.47 3717.82 2339.24ZM4037.58 2000.35C4030.03 1994 4022.48 1987.74 4014.93 1981.56 3979.24 1951.62 3943.63 1922.96 3903.4 1899.63 3861.27 1875.26 3826.35 1884.18 3779.68 1886.42 3754.37 1887.79 3731.38 1889.85 3713.02 1890.36 3693.37 1893.36 3671.75 1896.62 3647.39 1900.57 3611.09 1906.58 3569.14 1913.78 3522.04 1924.77 3475.02 1936.43 3422 1950.5 3366.92 1975.21 3312.19 1999.75 3253.85 2034.5 3207.95 2090.35 3191.39 2109.91 3177.23 2132.39 3165.39 2157.1 3158.44 2196.05 3151.24 2236.71 3143.69 2279.01 3170.2 2242.72 3198.94 2208.57 3235.66 2181.55 3304.89 2131.02 3381.08 2090.95 3462.93 2064.95 3604.83 2019.65 3758.15 2007.56 3905.37 2004.3 3928.71 2002.67 3955.04 2001.9 3983.36 2001.38 4000.69 2001.12 4018.88 2000.78 4037.58 2000.35ZM4228.73 2370.21C4194.41 2350.22 4160.69 2329.46 4138.13 2295.4 4135.81 2292.14 4134.78 2288.79 4134.53 2285.45 4134.01 2284.59 4133.58 2283.64 4133.33 2282.61 4121.57 2238.77 4106.3 2196.31 4090.26 2154.18 3911.55 2119.18 3723.66 2114.89 3544 2146.72 3398.58 2172.54 3255.22 2223.33 3165.65 2344.64 3185.9 2327.66 3205.54 2310.41 3225.71 2294.37 3261.31 2269.23 3295.71 2250.27 3329.77 2232.34 3397.21 2196.82 3463.53 2171.77 3525.56 2161.56 3647.21 2139.17 3744.16 2129.64 3818.2 2131.96 3892.24 2134.19 3943.03 2143.97 3974.18 2153.32 4005.32 2163.27 4018.28 2168.34 4017.85 2169.88 4017.25 2171.34 4003.35 2169.11 3972.03 2161.9 3940.89 2155.21 3890.78 2148 3818.03 2147.92 3745.36 2147.92 3650.13 2158.56 3529.33 2182.06 3469.62 2192.44 3406.39 2216.81 3339.98 2252.07 3306.87 2269.66 3271.78 2289.22 3239.43 2312.21 3222.53 2325.51 3206.06 2340.1 3188.47 2355.03 3250.76 2317.88 3310.21 2284.85 3368.3 2260.22 3404.59 2244.35 3440.71 2232.77 3475.45 2223.42 3510.37 2215.35 3544 2208.83 3575.83 2205.66 3639.84 2198.28 3696.89 2197.85 3747.16 2198.02 3797.27 2198.28 3841.11 2198.45 3879.2 2199.99 3955.22 2203 4007.55 2212.01 4040.15 2219.98 4072.15 2228.91 4085.54 2234.31 4085.54 2235.77 4084.34 2241.09 4029.51 2218.18 3878.69 2215.95 3840.94 2215.61 3797.44 2216.21 3747.16 2216.81 3697.15 2217.41 3640.69 2218.44 3578.49 2226.33 3547.18 2229.77 3514.58 2236.37 3480.77 2244.35 3447.31 2253.7 3412.39 2265.03 3377.05 2280.64 3376.62 2280.81 3376.1 2280.98 3375.67 2281.24 3447.74 2257.05 3515.18 2242.38 3576.61 2236.89 3695.43 2224.79 3788.43 2236.89 3857.67 2249.07 3875 2252.5 3891.04 2255.68 3905.63 2258.51 3920.13 2262.45 3933.34 2265.88 3945.44 2269.06 3957.28 2272.41 3968.09 2275.24 3977.78 2277.9 3987.22 2281.24 3995.71 2283.99 4003.09 2286.56 4032.26 2296.77 4044.61 2302 4044.01 2303.55 4043.58 2304.92 4030.29 2302.43 4000.52 2294.97 3993.14 2293.17 3984.56 2290.85 3974.95 2288.36 3965.25 2286.22 3954.44 2283.99 3942.43 2281.41 3930.34 2278.67 3917.12 2275.84 3902.71 2272.66 3888.04 2270.26 3872.25 2267.69 3855.09 2264.86 3786.46 2254.73 3694.74 2244.69 3578.84 2257.65 3525.3 2263.05 3467.05 2275.41 3404.67 2295.14 3490.04 2282.87 3576 2278.67 3662.23 2281.84 3828.15 2288.02 3986.19 2331.26 4147.57 2360.77 4174.68 2363.43 4201.62 2366.61 4228.73 2370.21ZM3782.51 2459.61C3963.45 2459.61 4147.14 2459.61 4325.76 2459.61 4314.52 2448.63 4302.94 2437.9 4291.62 2427.09 4291.36 2426.92 4291.02 2427.09 4290.59 2427.09 4245.89 2422.46 4201.45 2415.08 4157.35 2406.67 4011.5 2390.72 3864.7 2384.62 3717.82 2384.37 3538.86 2384.02 3365.12 2413.88 3189.41 2443.39 3192.16 2449.23 3194.91 2455.23 3197.39 2461.24 3239.43 2459.61 3269.89 2459.01 3304.47 2456.61 3340.93 2453.43 3374.47 2450.26 3407.59 2447.43 3440.71 2444.17 3472.11 2440.99 3502.14 2437.9 3532.34 2435.67 3560.99 2433.61 3588.1 2431.64 3601.66 2430.27 3614.87 2430.44 3627.65 2430.27 3640.44 2430.1 3652.96 2430.1 3664.97 2429.92 3689.17 2429.84 3711.99 2429.67 3733.35 2429.49 3776.08 2429.41 3813.4 2428.89 3845.66 2429.92 3910 2431.3 3954.44 2432.84 3982.76 2434.3 4011.24 2435.84 4023.42 2437.39 4023.42 2439.02 4023.42 2440.48 4011.24 2441.85 3982.76 2443.05 3954.44 2444.25 3910 2445.28 3845.66 2445.97 3813.31 2445.97 3776.25 2447.43 3733.61 2448.37 3712.42 2448.8 3689.68 2449.23 3665.75 2449.83 3653.73 2450.17 3641.38 2450.43 3628.51 2450.6 3615.73 2450.86 3602.69 2450.86 3589.3 2452.4 3573.17 2453.77 3556.27 2455.23 3539.03 2456.61 3620.45 2457.21 3701.87 2459.61 3782.51 2459.61ZM4395.6 2528.67C4386.33 2522.67 4376.04 2517.61 4367.03 2511.69 4363.94 2509.71 4361.62 2507.31 4360 2504.82 4172.1 2504.82 3994.77 2504.82 3811.94 2504.82 3616.93 2504.82 3415.23 2490.32 3221.84 2519.84 3223.3 2522.84 3224.68 2525.76 3226.22 2528.59 3226.91 2529.79 3227.51 2531.16 3228.02 2532.36 3617.1 2532.79 4006.52 2545.4 4395.6 2528.67ZM1871.27 2504.48C1871.27 2504.48 1871.1 2504.82 1870.92 2504.82 1871.27 2504.82 1871.61 2504.65 1871.87 2504.31 1873.07 2504.31 1877.1 2504.82 1877.1 2504.82 1877.45 2504.82 1877.79 2504.91 1878.05 2504.91 1880.19 2504.65 1882.25 2504.48 1884.65 2504.82 1943.51 2512.63 2006.57 2508.08 2065.76 2509.28 2195.66 2512.03 2325.55 2514.6 2455.36 2517.01 2635.53 2520.44 2815.87 2525.07 2996.03 2526.96 2996.03 2522.24 2996.03 2517.01 2996.03 2511.86 2815.87 2510.06 2635.53 2505.42 2455.36 2501.91 2325.55 2499.5 2195.66 2497.1 2065.76 2494.36 2007.08 2493.15 1944.45 2497.53 1886.02 2490.07 1884.39 2491.27 1882.42 2492.3 1880.45 2493.15 1879.68 2494.1 1878.99 2495.13 1878.05 2496.07 1874.44 2499.33 1873.24 2503.11 1871.87 2504.31L1871.7 2504.31C1871.61 2504.31 1871.44 2504.65 1871.27 2504.48ZM2352.66 2158.38C2317.74 2158.3 2284.8 2159.76 2251.68 2160.96 2180.3 2163.88 2112.26 2161.47 2059.16 2139.77L2018.23 2122.87 2058.39 2107.85C2104.03 2090.86 2142.55 2084.94 2169.58 2081.94 2170.26 2081.94 2170.69 2081.94 2171.29 2081.94 2207.15 2073.19 2254.25 2062.72 2315.34 2051.57 2359.18 2043.76 2410.31 2036.04 2469.68 2031.49 2500.14 2029.86 2532.74 2028.66 2567.32 2028.83 2569.29 2027.46 2571.52 2026.52 2574.53 2026.52 2674.65 2025.49 2774.86 2016.48 2873.09 2031.49 2872.32 2030.72 2871.37 2029.86 2870.52 2029.09 2858.16 2018.88 2845.64 2009.27 2833.37 2000.09 2814.24 1996.32 2794.67 1993.32 2774.6 1991.51 2735.3 1986.8 2697.13 1982.42 2660.23 1975.38 2623.34 1970.07 2587.57 1960.46 2553.42 1952.22 2536.18 1948.45 2521.08 1942.44 2505.72 1937.46 2490.53 1932.32 2475.78 1927.17 2461.53 1922.36L2456.21 1920.56 2452.61 1919.19 2450.04 1918.16C2446.61 1916.79 2443.17 1915.5 2439.83 1914.3 2433.05 1911.55 2426.62 1908.81 2420.1 1906.32 2406.88 1900.83 2394.36 1896.02 2382 1890.36 2369.82 1884.18 2357.29 1878.61 2347.51 1872.43 2342.54 1869.26 2337.9 1866.08 2333.44 1863.08 2331.13 1861.54 2329.07 1860.08 2326.84 1858.53L2323.49 1856.47 2321.95 1855.27 2321.52 1854.93 2320.49 1854.33C2320.14 1854.07 2319.46 1853.47 2319.46 1853.47 2302.73 1839.14 2290.8 1825.59 2281.54 1815.21 2276.99 1810.14 2272.87 1805.43 2269.27 1801.22 2265.49 1797.28 2262.23 1793.84 2259.66 1791.01 2258.46 1789.64 2257.51 1788.44 2256.66 1787.32 2248.85 1783.72 2245.5 1781.32 2245.93 1779.86 2246.88 1776.86 2263.43 1778.14 2299.81 1784.92 2318.34 1787.67 2342.02 1791.1 2371.62 1795.47 2401.39 1799.59 2437.08 1804.57 2479.38 1810.4 2521.76 1817.61 2571.35 1824.99 2626.77 1843.09 2654.83 1850.47 2683.23 1864.02 2713.68 1877.41 2742.43 1892.76 2772.54 1909.15 2803.34 1928.71 2813.63 1935.06 2823.84 1941.84 2834.4 1948.7 2836.03 1949.05 2837.83 1949.3 2839.63 1949.82 2859.19 1953.68 2878.15 1958.65 2896.51 1964.49 2933.23 1976.16 2967.64 1991.17 2998.44 2009.1 3022.54 2022.91 3044.68 2038.87 3064.07 2056.37 3061.07 2043.85 3057.89 2031.49 3055.15 2019.48 3048.54 1999.75 3042.11 1980.62 3035.93 1962.09 3027.95 1943.9 3020.23 1926.48 3012.76 1909.32 3004.96 1892.16 2995.6 1875.69 2987.63 1859.65 2954.17 1795.39 2921.65 1739.19 2893.34 1689.09 2864.77 1639.07 2840.23 1595.14 2819.13 1556.79 2736.51 1402.62 2717.89 1337.76 2722.52 1335.79 2729.47 1332.78 2758.04 1392.24 2847.01 1540.92 2869.57 1577.98 2895.74 1620.88 2925.68 1669.96 2955.54 1719.46 2989.43 1775.14 3024.35 1840 3032.93 1856.47 3042.36 1872.69 3050.94 1890.45 3059.09 1908.55 3067.67 1927.08 3076.08 1946.21 3083.03 1966.03 3090.41 1986.19 3097.36 2007.13 3102.5 2028.66 3108.94 2050.37 3113.14 2073.19 3116.4 2090.69 3118.89 2108.62 3120.78 2126.98 3122.07 2129.21 3122.92 2131.62 3123.95 2133.85 3143.94 2023.52 3162.05 1926.14 3178 1840.34 3203.91 1700.93 3224.5 1592.31 3241.15 1509.69 3274.35 1344.02 3290.91 1282.08 3297.09 1283.11 3303.26 1284.31 3297.69 1348.4 3272.55 1515.18 3260.11 1598.57 3242.78 1707.71 3219.27 1847.46 3208.72 1908.98 3196.96 1976.84 3184.01 2050.8 3234.8 1994.77 3295.29 1960.46 3350.37 1936.95 3409.73 1911.72 3465.07 1898.43 3513.98 1888.22 3562.88 1878.44 3605.95 1872.86 3643.18 1868.83 3674.33 1865.48 3701.26 1863.42 3724.6 1861.88 3752.14 1860.08 3770.5 1856.3 3798.47 1858.7 3825.41 1860.85 3852.86 1856.9 3879.8 1854.93 3884.95 1854.67 3894.99 1851.93 3899.19 1852.36 3953.07 1858.27 4007.89 1909.58 4047.62 1942.53 4072.58 1963.46 4096.09 1983.79 4119 2000.35L4173.91 2040.25 4107.33 2045.39C4101.5 2045.82 4095.83 2045.82 4089.91 2046.17 4087.08 2047.45 4083.74 2048.22 4079.79 2048.22 3899.19 2048.22 3701.44 2042.22 3522.3 2093.95 3489.87 2103.48 3457.87 2114.03 3426.72 2126.47 3461.13 2116.6 3496.39 2108.88 3531.91 2103.13 3723.83 2072.59 3917.55 2073.71 4108.45 2111.71 4114.19 2113 4118.23 2115.66 4120.89 2119.26 4124.4 2121.66 4127.41 2125.27 4129.21 2129.99 4147.14 2176.14 4163.95 2222.64 4176.91 2270.52 4177.08 2271.29 4177.08 2272.06 4177.25 2272.83 4207.37 2317.96 4267.25 2336.24 4309.55 2367.38 4317.7 2373.56 4320.1 2382.39 4318.9 2390.54 4342.24 2413.54 4366.09 2435.67 4387.54 2460.55 4397.74 2463.21 4402.98 2471.96 4403.32 2481.14 4424.94 2494.1 4447.42 2506.88 4458.14 2530.99 4463.12 2542.23 4461.58 2555.18 4449.99 2561.96 4449.65 2562.13 4449.22 2562.13 4448.96 2562.48 4445.45 2568.05 4439.44 2572.09 4431.03 2572.51 4029.86 2591.82 3628.25 2577.92 3226.82 2577.49 3219.53 2577.49 3213.95 2574.66 3210.43 2570.46 3208.12 2570.46 3205.89 2570.11 3203.31 2569.25 3156.98 2553.38 3089.64 2504.05 3049.57 2553.38 3048.88 2554.33 3048.11 2554.93 3047.34 2555.7 3045.19 2564.88 3038.33 2572.69 3026.15 2572.51 2835.86 2570.88 2645.56 2565.74 2455.36 2562.13 2325.55 2559.73 2195.66 2557.33 2065.76 2554.5 2006.57 2553.21 1943.51 2557.76 1884.65 2549.95 1883.97 2549.78 1883.28 2549.61 1882.59 2549.52 1880.96 2549.78 1879.16 2549.95 1877.1 2549.95 1856.34 2549.52 1830.52 2540.43 1826.14 2517.09 1822.19 2496.33 1830.94 2477.71 1846.13 2463.73 1847.42 2462.53 1848.7 2461.58 1850.08 2460.72 1850.51 2458.24 1851.28 2455.83 1852.65 2453.26 1872.21 2416.88 1892.8 2381.02 1917.85 2347.9 1921.29 2343.44 1925.49 2340.7 1930.21 2339.32 1931.15 2338.72 1932.44 2338.12 1933.73 2337.52 1998.5 2313.59 2056.76 2286.65 2085.5 2221.61 2125.48 2218.96 2171.89 2198.02 2212.04 2188.84 2255.54 2178.89 2308.13 2158.38 2352.66 2158.38" fill="#0B6BCB"/>
        <path d="M1871.7 2504.31 1871.87 2504.31C1871.61 2504.65 1871.27 2504.82 1870.92 2504.82 1871.1 2504.82 1871.27 2504.48 1871.27 2504.48 1871.44 2504.65 1871.61 2504.31 1871.7 2504.31"
              fill="#0B6BCB"/></g></svg>